# xmcd
#
# Track frame offsets:
#	150
#	15112
#	35700
#	46950
#	57112
#	68737
#	80587
#	92362
#	102450
#	114900
#	129075
#	143025
#	152205
#	165640
#
# Disc length: 2388 seconds
#
# Revision: 0
# Processed by: cddbd v1.5.2PL0 Copyright (c) Steve Scherf et al.
# Submitted via: EasyCDDAExtractor 10.2.0.1
#
DISCID=a509520e
DTITLE=North Star Bluegrass - Goin' Up on the Mountain
DYEAR=2005
DGENRE=Bluegrass
TTITLE0=Honey In The Rock
TTITLE1=Hold Fast 'Til After Midnight
TTITLE2=Cry From The Cross
TTITLE3=Goin' Up On The Mountain
TTITLE4=The Lord's Last Supper
TTITLE5=That Home Far Away
TTITLE6=A Brother, A Son
TTITLE7=Children Go
TTITLE8=Call Him On The Phone
TTITLE9=He Took Your Place
TTITLE10=Prayer Up To Heaven
TTITLE11=Daniel Prayed
TTITLE12=The Beautiful Hall
TTITLE13=Paul and Silas
EXTD=
EXTT0=
EXTT1=
EXTT2=
EXTT3=
EXTT4=
EXTT5=
EXTT6=
EXTT7=
EXTT8=
EXTT9=
EXTT10=
EXTT11=
EXTT12=
EXTT13=
PLAYORDER=
